<svg xmlns="http://www.w3.org/2000/svg" viewBox="0 0 637.21 283.46"><defs><style>.cls-1{fill:none;}.cls-2{fill:#015188;}</style></defs><g id="Calque_2" data-name="Calque 2"><g id="Calque_2-2" data-name="Calque 2"><path class="cls-1" d="M376,173c-12.19,0-20.5,9.37-20.5,28.28s8.31,28.27,20.5,28.27c12.37,0,20.32-8.66,20.32-28.27S388.34,173,376,173Z"/><path class="cls-1" d="M44.71,52.66c-11.49,0-18.56,7.24-20.85,19.79H64C63.08,59.2,54.78,52.66,44.71,52.66Z"/><path class="cls-1" d="M368.26,52.66c-11.49,0-18.56,7.24-20.85,19.79h40.11C386.64,59.2,378.33,52.66,368.26,52.66Z"/><path class="cls-1" d="M274.29,157c-13.61-.19-21.14,5.33-21.14,24.68s8.64,30.16,21.14,30.16c12.69,0,21.33-10.81,21.33-30.16S288.1,157.16,274.29,157Z"/><path class="cls-1" d="M175.58,189.87c-13.62-.19-21.15,5.33-21.15,24.68s8.65,30.16,21.15,30.16c12.69,0,21.33-10.81,21.33-30.16S189.38,190.06,175.58,189.87Z"/><path class="cls-1" d="M499.55,89.06c-8.66,2.3-16.61,5-16.61,13.43,0,7.07,4.95,10.6,12.37,10.6,12.19,0,21.2-7.42,21.2-20.85V83.41h-.88C511,85.88,505.2,87.47,499.55,89.06Z"/><path class="cls-2" d="M44.71,129c21.56,0,37.46-11.84,41.88-30.4H64.15c-2.3,7.43-8.84,13.08-18.74,13.08-10.95,0-20.14-6.89-21.91-23.86H86.94C88,53,71.21,35.34,44.53,35.34,19.44,35.34,0,53,0,82.17S18.2,129,44.71,129Zm0-76.34c10.07,0,18.37,6.54,19.26,19.79H23.86C26.15,59.9,33.22,52.66,44.71,52.66Z"/><path class="cls-2" d="M142.07,55.31c10.25,0,15,6,15,17.49v54.43h24V67.5c0-20.14-10.78-32.16-29.33-32.16-13.08,0-21.91,4.95-28.1,15h-.88V37.11h-23v90.12h24.21v-50C124.05,63.26,131.12,55.31,142.07,55.31Z"/><path class="cls-2" d="M206.22,104.26c0,16.26,6.89,23,23,23h22.44V108.32H240.5c-8.31,0-10.07-1.76-10.07-9.89V56h21.2V37.11h-21.2V8.23l-24.21,8.56V37.11H189.43V56h16.79Z"/><path class="cls-2" d="M287.5,81.64c0-18.38,7.42-24.21,22.62-24.21H319V35.87h-7.59c-11.84,0-18.2,6-24.21,19.26h-.89v-18h-23v90.12H287.5Z"/><path class="cls-2" d="M368.26,129c21.56,0,37.46-11.84,41.88-30.4H387.7c-2.3,7.43-8.84,13.08-18.74,13.08-10.95,0-20.14-6.89-21.91-23.86h63.44c1.06-34.81-15.73-52.48-42.41-52.48C343,35.34,323.55,53,323.55,82.17S341.75,129,368.26,129Zm0-76.34c10.07,0,18.38,6.54,19.26,19.79H347.41C349.7,59.9,356.77,52.66,368.26,52.66Z"/><rect class="cls-2" x="423.39" width="24.21" height="127.23"/><path class="cls-2" d="M538.78,68.56c0-20.85-10.78-33.22-35.87-33.22-23.51,0-39.23,12-40.12,30.93h22.8c.53-8.49,4.77-14.14,16.08-14.14,8.83,0,13.61,3.89,13.61,9.72,0,8.83-9.37,11.48-20.5,14C478.87,79.34,460,82.52,460,103.37c0,16.44,12.37,25.63,30.21,25.63,11.84,0,21.56-4.77,27.22-13.79h.88l4.76,12h21.74l.88-.88L538.78,106ZM516.51,92.24c0,13.43-9,20.85-21.2,20.85-7.42,0-12.37-3.53-12.37-10.6,0-8.48,7.95-11.13,16.61-13.43,5.65-1.59,11.48-3.18,16.08-5.65h.88Z"/><path class="cls-2" d="M614.41,92.77c-1.24,12.19-7.24,18.56-17.67,18.56-12.55,0-20.85-10.43-20.85-29.16S584.19,53,596.74,53c9.9,0,15.37,5,17.32,16.26h22.79C634,47.71,617.77,35.34,596.56,35.34c-26.5,0-45.06,18.91-45.06,46.83S570.06,129,596.56,129c21.74,0,38.88-13.61,40.65-36.23Z"/><rect class="cls-2" x="0.48" y="221.26" width="25.45" height="25.09"/><path class="cls-2" d="M78.76,230.45c-12.55,0-20.85-10.42-20.85-29.15s8.3-29.16,20.85-29.16c9.89,0,15.37,5,17.32,16.26h22.79c-2.83-21.56-19.08-33.93-40.29-33.93-26.5,0-45.06,18.91-45.06,46.83s18.56,46.82,45.06,46.82c21.74,0,38.88-13.6,40.65-36.22H96.43C95.19,224.09,89.18,230.45,78.76,230.45Z"/><path class="cls-2" d="M382.68,154.47c-12,0-20.85,4.95-26.86,14.13h-.88V156.23H332V283.46h24.21v-33a158.94,158.94,0,0,0-.89-16.43h.89c5.83,9.19,14.66,14.13,26.5,14.13,20.68,0,38-17.14,38-46.82S403.89,154.47,382.68,154.47ZM376,229.57c-12.19,0-20.5-9.37-20.5-28.27S363.78,173,376,173c12.37,0,20.32,8.66,20.32,28.28S388.34,229.57,376,229.57Z"/><path class="cls-2" d="M274.29,140.52c-27.32-.2-46.52,12.45-46.52,41.13s19.31,46.61,46.52,46.61c27.4,0,46.71-17.94,46.71-46.61S301.81,140.71,274.29,140.52Zm0,71.29c-12.5,0-21.14-10.81-21.14-30.16s7.53-24.87,21.14-24.68c13.81.19,21.33,5.33,21.33,24.68S287,211.81,274.29,211.81Z"/><path class="cls-2" d="M175.58,173.42c-27.33-.2-46.52,12.46-46.52,41.13s19.31,46.61,46.52,46.61c27.4,0,46.71-17.94,46.71-46.61S203.09,173.61,175.58,173.42Zm0,71.29c-12.5,0-21.15-10.81-21.15-30.16s7.53-24.87,21.15-24.68c13.8.19,21.33,5.33,21.33,24.68S188.27,244.71,175.58,244.71Z"/></g></g></svg>